<?xml version="1.0" encoding="iso-8859-1"?>
<!-- Generator: Adobe Illustrator 29.1.0, SVG Export Plug-In . SVG Version: 9.03 Build 55587)  -->
<svg version="1.1" id="Layer_1" xmlns="http://www.w3.org/2000/svg" xmlns:xlink="http://www.w3.org/1999/xlink" x="0px" y="0px"
	 viewBox="0 0 588.4522095 136" style="enable-background:new 0 0 588.4522095 136;" xml:space="preserve">
<g>
	<g>
		<path style="fill:#FFDD2D;" d="M0,0h136.0001678v68.3981705c0,17.5342789-9.3540421,33.7371063-24.5383072,42.5051651
			L68.0001144,136l-43.4616776-25.0966644C9.3538551,102.1352768,0,85.9324493,0,68.3981705V0z"/>
		<path style="fill-rule:evenodd;clip-rule:evenodd;fill:#333333;" d="M37.3245163,35.9996452v21.2732811
			c2.9090385-3.2849846,8.1981583-5.5082664,14.2455978-5.5082664h6.5718727v24.7299614
			c0,6.5793228-1.7876167,12.3381195-4.4399872,15.505722h28.5862465
			c-2.6468277-3.1708145-4.4303589-8.9223175-4.4303589-15.4931641V51.7646599h6.5721664
			c6.0474396,0,11.3364182,2.2232819,14.2455978,5.5082664V35.9996452H37.3245163z"/>
	</g>
	<g>
		<g>
			<path style="fill:#333333;" d="M166.749939,35.8741264h21.8709106l14.2602386,28.0423088h0.7220154l14.2602386-28.0423088
				h21.0708008v56.0822487h-16.9849396V57.1058884h-0.8001251l-11.4574432,22.592926h-13.6187134l-11.5379333-22.592926h-0.8001251
				v34.8504868H166.749939V35.8741264z"/>
			<path style="fill:#333333;" d="M316.3996582,63.9164352c0,16.823967-12.8990784,29.6425629-36.1311646,29.6425629
				c-23.234436,0-36.1335297-12.8185959-36.1335297-29.6425629c0-16.8263321,12.8990936-29.644928,36.1335297-29.644928
				C303.5005798,34.2715073,316.3996582,47.0901031,316.3996582,63.9164352z M298.7755737,63.9164352
				c0-9.213295-7.2106323-15.2237129-18.5070801-15.2237129c-11.2964783,0-18.5070801,6.0104179-18.5070801,15.2237129
				s7.2106018,15.221344,18.5070801,15.221344C291.5649414,79.1377792,298.7755737,73.1297302,298.7755737,63.9164352z"/>
			<path style="fill:#333333;" d="M321.8419495,91.9563751V35.8741264h56.9628601v12.8185959h-39.9779358v8.0131035h19.7877502
				c14.0211487,0,24.4346313,3.2052422,24.4346313,17.6240921c0,14.4212189-10.4134827,17.6264572-24.4346313,17.6264572
				H321.8419495z M338.8268738,69.5244217v9.6133575h19.8682251c5.7689514,0,7.130127-1.1220703,7.130127-4.8078613
				c0-3.6834259-1.3611755-4.8054962-7.130127-4.8054962H338.8268738z"/>
			<path style="fill:#333333;" d="M431.113678,83.7041779h-26.5178223l-2.9637756,8.2521973H383.844635l22.1928711-56.0822487
				h24.5151367l22.1123657,56.0822487h-18.5875549L431.113678,83.7041779z M426.5472717,70.885582l-7.8521423-22.1123734h-1.4416504
				l-8.0107422,22.1123734H426.5472717z"/>
			<path style="fill:#333333;" d="M474.6116638,35.8741264v32.5282249h0.8001404l29.4034729-32.5282249h14.5798035v56.0822487
				h-16.9825439V59.5086365h-0.8024902l-29.4034729,32.4477386h-14.579834V35.8741264H474.6116638z M488.4718628,22.4140072
				c7.0496216,0,14.0187683-0.4805489,20.8293152-1.2806759v8.8132286
				c-6.6495667,1.2806778-13.6991882,1.9221992-20.7488403,1.9221992c-7.052002,0-14.0211487-0.6415215-20.7512207-1.9221992
				v-8.8132286C474.4507141,21.9334583,481.5003357,22.4140072,488.4718628,22.4140072z"/>
			<path style="fill:#333333;" d="M571.4672241,50.6954079h-20.6707153c0,9.5352364-1.0415649,22.2733498-2.1636353,29.8840218
				c-1.6026611,10.8159103-8.0107422,11.3769455-15.862854,11.3769455h-7.0496826V77.1350937h7.2911377
				c1.2001953-7.6911545,1.7612305-16.9044495,1.7612305-26.4396858V35.8741264h53.6795044v56.0822487h-16.9849854V50.6954079z"/>
		</g>
	</g>
</g>
</svg>
